<svg width="290" height="21" viewBox="0 0 290 21" fill="none" xmlns="http://www.w3.org/2000/svg">
<g clip-path="url(#clip0_267_4813)">
<path d="M35.7048 3V8.58175C35.7048 14.4737 40.4812 19.25 46.3731 19.25C52.265 19.25 57.0413 14.4737 57.0413 8.58175V3M63.517 3V4.25C63.517 12.5343 70.2327 19.25 78.517 19.25H81.4496M78.0042 3H90.4989M90.4989 3H102.994M90.4989 3V19.25M107.186 3V8.58176C107.186 14.4737 111.963 19.25 117.854 19.25C123.746 19.25 128.523 14.4737 128.523 8.58176V3M136.742 19.25V11.4865M136.742 11.4865V3H155.329C157.673 3 159.573 4.89978 159.573 7.24327C159.573 9.58676 157.673 11.4865 155.329 11.4865H150.108M136.742 11.4865H150.108M150.108 11.4865L159.573 19.25M167.46 19.25C168.058 18.6715 176.315 8.17564 179.664 3L186.887 13.6557M186.887 13.6557L190.789 19.25M186.887 13.6557L177.339 13.7699M203.242 3V4.25C203.242 12.5343 209.958 19.25 218.242 19.25H220.676M232.466 3V19.25M232.466 19.25H234.209M232.466 19.25H230.722M263.599 19.25H242.179L263.599 3H242.179M289.5 19.25H282.37C277.99 19.25 274.375 15.8226 274.142 11.4485M274.142 11.4485C274.142 6.78251 277.925 3 282.591 3H289.5M274.142 11.4485H282.112M230.805 3C231.004 3 231.663 3 234.126 3M29.8933 3H9.625C5.13769 3 1.5 6.63769 1.5 11.125C1.5 15.6123 5.13769 19.25 9.625 19.25H29.8933" stroke="white" stroke-width="3"/>
</g>
<defs>
<clipPath id="clip0_267_4813">
<rect width="290" height="21" fill="white"/>
</clipPath>
</defs>
</svg>
