<svg width="253" height="28" viewBox="0 0 253 28" fill="none" xmlns="http://www.w3.org/2000/svg">
<path d="M31.8104 4V16.7023C31.8104 21.8373 35.9732 26 41.1081 26V26C46.2431 26 50.4058 21.8373 50.4058 16.7023V4M56.0495 4V11C56.0495 19.2843 62.7652 26 71.0495 26H71.6783M68.6755 4H79.565M90.4545 4H79.565M79.565 4V26M94.1085 4V16.7023C94.1085 21.8373 98.2712 26 103.406 26V26C108.541 26 112.704 21.8373 112.704 16.7023V4M119.867 26V15.4895M119.867 15.4895V4H134.02C137.193 4 139.765 6.572 139.765 9.74473V9.74473C139.765 12.9175 137.193 15.4895 134.02 15.4895H131.516M119.867 15.4895H131.516M131.516 15.4895L139.765 26M146.639 26C147.159 25.2169 154.356 11.007 157.275 4L163.57 18.4262M166.97 26L163.57 18.4262M163.57 18.4262L155.249 18.5808M177.824 4V11C177.824 19.2843 184.539 26 192.824 26H193.018M203.293 4V26M203.293 26H204.812M203.293 26H201.773M230.426 26H211.758L230.426 4H211.758M253 26H249.64C244.251 26 239.831 21.7288 239.646 16.3423L239.615 15.4379M253 4H249.615C244.092 4 239.615 8.47716 239.615 14V15.4379M239.615 15.4379H246.561M201.846 4C202.019 4 202.593 4 204.74 4M26.7456 4H13C6.92487 4 2 8.92487 2 15V15C2 21.0751 6.92487 26 13 26H26.7456" stroke="#494949" stroke-width="3"/>
</svg>
