<svg width="40" height="34" viewBox="0 0 40 34" fill="none" xmlns="http://www.w3.org/2000/svg">
<path d="M20.2 28.7362L20 28.9171L19.78 28.7362C10.28 20.9418 4 15.7877 4 10.5613C4 6.94435 7 4.23166 11 4.23166C14.08 4.23166 17.08 6.04012 18.14 8.49962H21.86C22.92 6.04012 25.92 4.23166 29 4.23166C33 4.23166 36 6.94435 36 10.5613C36 15.7877 29.72 20.9418 20.2 28.7362ZM29 0.614746C25.52 0.614746 22.18 2.0796 20 4.37634C17.82 2.0796 14.48 0.614746 11 0.614746C4.84 0.614746 0 4.97313 0 10.5613C0 17.3791 6.8 22.9673 17.1 31.4128L20 33.7999L22.9 31.4128C33.2 22.9673 40 17.3791 40 10.5613C40 4.97313 35.16 0.614746 29 0.614746Z" fill="black"/>
</svg>
