<svg width="30" height="26" viewBox="0 0 30 26" fill="none" xmlns="http://www.w3.org/2000/svg">
<path d="M27.1023 25.0922L17.5568 17.1618C16.7045 17.7282 15.7244 18.1767 14.6165 18.5071C13.5085 18.8375 12.3295 19.0028 11.0795 19.0028C7.98295 19.0028 5.3625 18.1115 3.21818 16.3291C1.07386 14.5466 0.00113636 12.3695 0 9.79777C0 7.22509 1.07273 5.04799 3.21818 3.26647C5.36364 1.48495 7.98409 0.593718 11.0795 0.592773C14.1761 0.592773 16.7966 1.48401 18.9409 3.26647C21.0852 5.04893 22.158 7.22603 22.1591 9.79777C22.1591 10.8363 21.9602 11.8158 21.5625 12.7363C21.1648 13.6568 20.625 14.4711 19.9432 15.1791L29.5312 23.145C29.8438 23.4046 30 23.7233 30 24.1009C30 24.4786 29.8295 24.809 29.4886 25.0922C29.1761 25.3518 28.7784 25.4817 28.2955 25.4817C27.8125 25.4817 27.4148 25.3518 27.1023 25.0922ZM11.0795 16.1705C13.2102 16.1705 15.0216 15.5507 16.5136 14.311C18.0057 13.0714 18.7511 11.567 18.75 9.79777C18.75 8.02758 18.004 6.52268 16.5119 5.28307C15.0199 4.04347 13.2091 3.42414 11.0795 3.42508C8.94886 3.42508 7.1375 4.04488 5.64545 5.28449C4.15341 6.52409 3.40795 8.02852 3.40909 9.79777C3.40909 11.568 4.15511 13.0729 5.64716 14.3125C7.1392 15.5521 8.95 16.1714 11.0795 16.1705Z" fill="black"/>
</svg>
