<svg width="40" height="41" viewBox="0 0 40 41" fill="none" xmlns="http://www.w3.org/2000/svg">
<path d="M20 0.125977C22.6522 0.125977 25.1957 1.17954 27.0711 3.05491C28.9464 4.93027 30 7.47381 30 10.126C30 12.7781 28.9464 15.3217 27.0711 17.197C25.1957 19.0724 22.6522 20.126 20 20.126C17.3478 20.126 14.8043 19.0724 12.9289 17.197C11.0536 15.3217 10 12.7781 10 10.126C10 7.47381 11.0536 4.93027 12.9289 3.05491C14.8043 1.17954 17.3478 0.125977 20 0.125977ZM20 25.126C31.05 25.126 40 29.601 40 35.126V40.126H0V35.126C0 29.601 8.95 25.126 20 25.126Z" fill="black"/>
</svg>
