<svg width="38" height="38" viewBox="0 0 38 38" fill="none" xmlns="http://www.w3.org/2000/svg">
<path d="M28.5 19V1.9C28.5 1.39609 28.2998 0.912816 27.9435 0.556497C27.5872 0.200178 27.1039 0 26.6 0H1.9C1.39609 0 0.912816 0.200178 0.556497 0.556497C0.200178 0.912816 0 1.39609 0 1.9V28.5L7.6 20.9H26.6C27.1039 20.9 27.5872 20.6998 27.9435 20.3435C28.2998 19.9872 28.5 19.5039 28.5 19ZM36.1 7.6H32.3V24.7H7.6V28.5C7.6 29.0039 7.80018 29.4872 8.1565 29.8435C8.51282 30.1998 8.99609 30.4 9.5 30.4H30.4L38 38V9.5C38 8.99609 37.7998 8.51282 37.4435 8.1565C37.0872 7.80018 36.6039 7.6 36.1 7.6Z" fill="black"/>
</svg>
